<mxfile host="app.diagrams.net" agent="Mozilla/5.0 (Windows NT 10.0; Win64; x64) AppleWebKit/537.36 (KHTML, like Gecko) Chrome/131.0.0.0 Safari/537.36" version="25.0.3">
  <diagram id="C5RBs43oDa-KdzZeNtuy" name="Page-1">
    <mxGraphModel dx="1404" dy="557" grid="1" gridSize="10" guides="1" tooltips="1" connect="1" arrows="1" fold="1" page="1" pageScale="1" pageWidth="827" pageHeight="1169" math="0" shadow="0">
      <root>
        <mxCell id="WIyWlLk6GJQsqaUBKTNV-0" />
        <mxCell id="WIyWlLk6GJQsqaUBKTNV-1" parent="WIyWlLk6GJQsqaUBKTNV-0" />
        <mxCell id="0HwQ_DeEo9rfuC11lh6_-12" style="edgeStyle=orthogonalEdgeStyle;rounded=0;orthogonalLoop=1;jettySize=auto;html=1;exitX=0.5;exitY=1;exitDx=0;exitDy=0;exitPerimeter=0;entryX=0.5;entryY=0;entryDx=0;entryDy=0;" edge="1" parent="WIyWlLk6GJQsqaUBKTNV-1" source="0HwQ_DeEo9rfuC11lh6_-0" target="0HwQ_DeEo9rfuC11lh6_-1">
          <mxGeometry relative="1" as="geometry" />
        </mxCell>
        <mxCell id="0HwQ_DeEo9rfuC11lh6_-0" value="START" style="strokeWidth=2;html=1;shape=mxgraph.flowchart.start_1;whiteSpace=wrap;" vertex="1" parent="WIyWlLk6GJQsqaUBKTNV-1">
          <mxGeometry x="360" y="100" width="100" height="60" as="geometry" />
        </mxCell>
        <mxCell id="0HwQ_DeEo9rfuC11lh6_-11" style="edgeStyle=orthogonalEdgeStyle;rounded=0;orthogonalLoop=1;jettySize=auto;html=1;exitX=0.5;exitY=1;exitDx=0;exitDy=0;entryX=0.5;entryY=0;entryDx=0;entryDy=0;" edge="1" parent="WIyWlLk6GJQsqaUBKTNV-1" source="0HwQ_DeEo9rfuC11lh6_-1" target="0HwQ_DeEo9rfuC11lh6_-2">
          <mxGeometry relative="1" as="geometry" />
        </mxCell>
        <mxCell id="0HwQ_DeEo9rfuC11lh6_-1" value="READ MARK1 , MARK2 , MARK3&amp;nbsp;" style="shape=parallelogram;html=1;strokeWidth=2;perimeter=parallelogramPerimeter;whiteSpace=wrap;rounded=1;arcSize=12;size=0.23;" vertex="1" parent="WIyWlLk6GJQsqaUBKTNV-1">
          <mxGeometry x="257.25" y="180" width="305.5" height="60" as="geometry" />
        </mxCell>
        <mxCell id="0HwQ_DeEo9rfuC11lh6_-14" style="edgeStyle=orthogonalEdgeStyle;rounded=0;orthogonalLoop=1;jettySize=auto;html=1;exitX=0.5;exitY=1;exitDx=0;exitDy=0;entryX=0.5;entryY=0;entryDx=0;entryDy=0;" edge="1" parent="WIyWlLk6GJQsqaUBKTNV-1" source="0HwQ_DeEo9rfuC11lh6_-2" target="0HwQ_DeEo9rfuC11lh6_-13">
          <mxGeometry relative="1" as="geometry" />
        </mxCell>
        <mxCell id="0HwQ_DeEo9rfuC11lh6_-2" value="AVG = (MARK1 + MARK2 + MARK3 ) / 3" style="rounded=1;whiteSpace=wrap;html=1;absoluteArcSize=1;arcSize=14;strokeWidth=2;" vertex="1" parent="WIyWlLk6GJQsqaUBKTNV-1">
          <mxGeometry x="280" y="270" width="260" height="60" as="geometry" />
        </mxCell>
        <mxCell id="0HwQ_DeEo9rfuC11lh6_-3" value="AVG &amp;gt;= 50" style="strokeWidth=2;html=1;shape=mxgraph.flowchart.decision;whiteSpace=wrap;" vertex="1" parent="WIyWlLk6GJQsqaUBKTNV-1">
          <mxGeometry x="340" y="480" width="140" height="130" as="geometry" />
        </mxCell>
        <mxCell id="0HwQ_DeEo9rfuC11lh6_-4" value="PRINT &quot;PASS&quot;" style="shape=parallelogram;html=1;strokeWidth=2;perimeter=parallelogramPerimeter;whiteSpace=wrap;rounded=1;arcSize=12;size=0.23;" vertex="1" parent="WIyWlLk6GJQsqaUBKTNV-1">
          <mxGeometry x="50" y="650" width="200" height="60" as="geometry" />
        </mxCell>
        <mxCell id="0HwQ_DeEo9rfuC11lh6_-5" value="PRINT &quot;FAIL&quot;" style="shape=parallelogram;html=1;strokeWidth=2;perimeter=parallelogramPerimeter;whiteSpace=wrap;rounded=1;arcSize=12;size=0.23;" vertex="1" parent="WIyWlLk6GJQsqaUBKTNV-1">
          <mxGeometry x="600" y="660" width="200" height="60" as="geometry" />
        </mxCell>
        <mxCell id="0HwQ_DeEo9rfuC11lh6_-6" style="edgeStyle=orthogonalEdgeStyle;rounded=0;orthogonalLoop=1;jettySize=auto;html=1;exitX=1;exitY=0.5;exitDx=0;exitDy=0;exitPerimeter=0;entryX=0.566;entryY=0.065;entryDx=0;entryDy=0;entryPerimeter=0;" edge="1" parent="WIyWlLk6GJQsqaUBKTNV-1" source="0HwQ_DeEo9rfuC11lh6_-3" target="0HwQ_DeEo9rfuC11lh6_-5">
          <mxGeometry relative="1" as="geometry" />
        </mxCell>
        <mxCell id="0HwQ_DeEo9rfuC11lh6_-9" value="NO" style="edgeLabel;html=1;align=center;verticalAlign=middle;resizable=0;points=[];" vertex="1" connectable="0" parent="0HwQ_DeEo9rfuC11lh6_-6">
          <mxGeometry x="-0.4365" y="2" relative="1" as="geometry">
            <mxPoint as="offset" />
          </mxGeometry>
        </mxCell>
        <mxCell id="0HwQ_DeEo9rfuC11lh6_-7" style="edgeStyle=orthogonalEdgeStyle;rounded=0;orthogonalLoop=1;jettySize=auto;html=1;exitX=0;exitY=0.5;exitDx=0;exitDy=0;exitPerimeter=0;entryX=0.553;entryY=0.001;entryDx=0;entryDy=0;entryPerimeter=0;" edge="1" parent="WIyWlLk6GJQsqaUBKTNV-1" source="0HwQ_DeEo9rfuC11lh6_-3" target="0HwQ_DeEo9rfuC11lh6_-4">
          <mxGeometry relative="1" as="geometry" />
        </mxCell>
        <mxCell id="0HwQ_DeEo9rfuC11lh6_-8" value="YES" style="edgeLabel;html=1;align=center;verticalAlign=middle;resizable=0;points=[];" vertex="1" connectable="0" parent="0HwQ_DeEo9rfuC11lh6_-7">
          <mxGeometry x="-0.4323" y="-3" relative="1" as="geometry">
            <mxPoint as="offset" />
          </mxGeometry>
        </mxCell>
        <mxCell id="0HwQ_DeEo9rfuC11lh6_-13" value="PRINT AVG" style="shape=parallelogram;html=1;strokeWidth=2;perimeter=parallelogramPerimeter;whiteSpace=wrap;rounded=1;arcSize=12;size=0.23;" vertex="1" parent="WIyWlLk6GJQsqaUBKTNV-1">
          <mxGeometry x="310" y="380" width="200" height="60" as="geometry" />
        </mxCell>
        <mxCell id="0HwQ_DeEo9rfuC11lh6_-15" style="edgeStyle=orthogonalEdgeStyle;rounded=0;orthogonalLoop=1;jettySize=auto;html=1;exitX=0.5;exitY=1;exitDx=0;exitDy=0;entryX=0.5;entryY=0;entryDx=0;entryDy=0;entryPerimeter=0;" edge="1" parent="WIyWlLk6GJQsqaUBKTNV-1" source="0HwQ_DeEo9rfuC11lh6_-13" target="0HwQ_DeEo9rfuC11lh6_-3">
          <mxGeometry relative="1" as="geometry" />
        </mxCell>
        <mxCell id="0HwQ_DeEo9rfuC11lh6_-16" value="END" style="strokeWidth=2;html=1;shape=mxgraph.flowchart.terminator;whiteSpace=wrap;" vertex="1" parent="WIyWlLk6GJQsqaUBKTNV-1">
          <mxGeometry x="380" y="770" width="100" height="60" as="geometry" />
        </mxCell>
        <mxCell id="0HwQ_DeEo9rfuC11lh6_-17" style="edgeStyle=orthogonalEdgeStyle;rounded=0;orthogonalLoop=1;jettySize=auto;html=1;exitX=0.5;exitY=1;exitDx=0;exitDy=0;entryX=1;entryY=0.5;entryDx=0;entryDy=0;entryPerimeter=0;" edge="1" parent="WIyWlLk6GJQsqaUBKTNV-1" source="0HwQ_DeEo9rfuC11lh6_-5" target="0HwQ_DeEo9rfuC11lh6_-16">
          <mxGeometry relative="1" as="geometry" />
        </mxCell>
        <mxCell id="0HwQ_DeEo9rfuC11lh6_-18" style="edgeStyle=orthogonalEdgeStyle;rounded=0;orthogonalLoop=1;jettySize=auto;html=1;exitX=0.5;exitY=1;exitDx=0;exitDy=0;entryX=0;entryY=0.5;entryDx=0;entryDy=0;entryPerimeter=0;" edge="1" parent="WIyWlLk6GJQsqaUBKTNV-1" source="0HwQ_DeEo9rfuC11lh6_-4" target="0HwQ_DeEo9rfuC11lh6_-16">
          <mxGeometry relative="1" as="geometry" />
        </mxCell>
      </root>
    </mxGraphModel>
  </diagram>
</mxfile>
